<?xml version="1.0" encoding="utf-8"?>
<!-- Generator: Adobe Illustrator 19.0.0, SVG Export Plug-In . SVG Version: 6.00 Build 0)  -->
<svg version="1.1" id="Layer_1" xmlns="http://www.w3.org/2000/svg" xmlns:xlink="http://www.w3.org/1999/xlink" x="0px" y="0px"
	 viewBox="-285.8 385 24.3 24" style="enable-background:new -285.8 385 24.3 24;" xml:space="preserve">
<style type="text/css">
	.st0{fill:#FFFFFF;}
</style>
<g>
	<g id="Layer_1_73_">
		<g>
			<path class="st0" d="M-267.3,394.6c-0.4,0-0.8,0.3-0.8,0.8v2h-11.3v-3.6c0-0.4-0.3-0.8-0.8-0.8s-0.8,0.4-0.8,0.8v6.4
				c0,0.4,0.3,0.8,0.8,0.8s0.8-0.3,0.8-0.8v-0.9h11.3v0.9c0,0.4,0.3,0.8,0.8,0.8c0.4,0,0.8-0.3,0.8-0.8v-4.8
				C-266.5,394.9-266.9,394.6-267.3,394.6z"/>
			<circle class="st0" cx="-277.6" cy="395.6" r="1.1"/>
			<path class="st0" d="M-275.1,396.8h5.4c0.6,0,1-0.5,1-1c0-0.6-0.4-1-1-1h-5.4c-0.6,0-1,0.5-1,1S-275.7,396.8-275.1,396.8z"/>
		</g>
	</g>
</g>
</svg>
