<?xml version="1.0" encoding="utf-8"?>
<!-- Generator: Adobe Illustrator 19.0.0, SVG Export Plug-In . SVG Version: 6.00 Build 0)  -->
<svg version="1.1" id="Layer_1" xmlns="http://www.w3.org/2000/svg" xmlns:xlink="http://www.w3.org/1999/xlink" x="0px" y="0px"
	 viewBox="-586 770 24 24" style="enable-background:new -586 770 24 24;" xml:space="preserve">
<style type="text/css">
	.st0{fill:#FFFFFF;}
</style>
<g>
	<path class="st0" d="M-575.4,779.6c0.5,0.9,1,1.8,1.5,2.7c-0.7,0.3-1.5,1-1.9,1.3c-0.4,0.3-1.2,2.1-1.6,2.9c-0.4,0.8,1,1.5,1.4,0.6
		c0.4-0.8,1-2.2,1.3-2.5c0.3-0.3,1.4-1.1,2.3-1.4c0-0.1,0.1-0.1,0.1-0.1c1.1,1.3,3.1,1.9,4.9,0.9c1-0.5,0.1-1.8-0.8-1.3
		c-1.3,0.8-2.7-0.2-3.3-1.4c-0.6-1.2-1-2-1.5-2.9c0.9-0.4,1.8-0.1,2.5,0.9c0.5,0.8,1.9,0,1.3-0.8c-1.4-1.9-3.4-2.4-5.4-1.2
		c0,0-0.4,0.2-0.5,0.3c-1.3,0.8-2.4,0.6-3.3-0.6c-0.5-0.7-1.9,0-1.3,0.8C-578.6,779.4-577,780-575.4,779.6z"/>
	<path class="st0" d="M-566.2,788.2h-13.7l-1.1-6.2h2.7c0.4,0,0.7-0.3,0.7-0.7c0-0.4-0.3-0.7-0.7-0.7h-3.5c-0.4,0-0.7,0.3-0.7,0.7
		v0.1v0.1l1.3,7.4c0.1,0.4,0.4,0.6,0.7,0.6h14.3c0.3,0,0.6-0.3,0.7-0.6C-565.5,788.5-565.8,788.2-566.2,788.2z"/>
	<path class="st0" d="M-575.9,777.5c0.8,0,1.5-0.7,1.5-1.5s-0.7-1.5-1.5-1.5s-1.5,0.6-1.5,1.5C-577.4,776.8-576.7,777.5-575.9,777.5
		z"/>
</g>
</svg>
