<?xml version="1.0" encoding="utf-8"?>
<!-- Generator: Adobe Illustrator 19.0.0, SVG Export Plug-In . SVG Version: 6.00 Build 0)  -->
<svg version="1.1" id="Layer_1" xmlns="http://www.w3.org/2000/svg" xmlns:xlink="http://www.w3.org/1999/xlink" x="0px" y="0px"
	 viewBox="-293 385 24 24" style="enable-background:new -293 385 24 24;" xml:space="preserve">
<style type="text/css">
	.st0{fill:#1E3A21;}
</style>
<path class="st0" d="M-271.8,385h-18.4c-1.5,0-2.8,1.3-2.8,2.8v18.4c0,1.5,1.3,2.8,2.8,2.8h18.4c1.5,0,2.8-1.3,2.8-2.8v-18.4
	C-269,386.3-270.3,385-271.8,385z M-282.9,389.5c0.8,0,1.5,0.7,1.5,1.5s-0.7,1.5-1.5,1.5c-0.8,0-1.5-0.7-1.5-1.5
	C-284.4,390.1-283.7,389.5-282.9,389.5z M-285.4,392c0.9,1.2,2,1.4,3.3,0.6c0.1-0.1,0.5-0.3,0.5-0.3c2-1.2,4-0.7,5.4,1.2
	c0.6,0.8-0.8,1.6-1.3,0.8c-0.7-1-1.6-1.3-2.5-0.9c0.5,0.9,0.9,1.7,1.5,2.9c0.6,1.2,2,2.2,3.3,1.4c0.9-0.5,1.8,0.8,0.8,1.3
	c-1.8,1-3.8,0.4-4.9-0.9c0,0-0.1,0-0.1,0.1c-0.9,0.3-2,1.1-2.3,1.4c-0.3,0.3-0.9,1.7-1.3,2.5c-0.4,0.9-1.8,0.2-1.4-0.6
	s1.2-2.6,1.6-2.9c0.4-0.3,1.2-1,1.9-1.3c-0.5-0.9-1-1.8-1.5-2.7c-1.6,0.4-3.2-0.2-4.3-1.8C-287.3,392-285.9,391.3-285.4,392z
	 M-273.2,404.5h-14.3c-0.3,0-0.6-0.2-0.7-0.6l-1.3-7.4v-0.1v-0.1c0-0.4,0.3-0.7,0.7-0.7h3.5c0.4,0,0.7,0.3,0.7,0.7
	c0,0.4-0.3,0.7-0.7,0.7h-2.7l1.1,6.2h13.7c0.4,0,0.7,0.3,0.7,0.7C-272.6,404.2-272.9,404.5-273.2,404.5z"/>
</svg>
