<?xml version="1.0" encoding="utf-8"?>
<!-- Generator: Adobe Illustrator 19.0.0, SVG Export Plug-In . SVG Version: 6.00 Build 0)  -->
<svg version="1.1" id="Layer_1" xmlns="http://www.w3.org/2000/svg" xmlns:xlink="http://www.w3.org/1999/xlink" x="0px" y="0px"
	 viewBox="-293 385 24 24" style="enable-background:new -293 385 24 24;" xml:space="preserve">
<style type="text/css">
	.st0{fill:#1E3A21;}
</style>
<path class="st0" d="M-271.8,385h-18.4c-1.5,0-2.8,1.3-2.8,2.8v18.4c0,1.5,1.3,2.8,2.8,2.8h18.4c1.5,0,2.8-1.3,2.8-2.8v-18.4
	C-269,386.3-270.3,385-271.8,385z M-276.1,398v5h-9.8v-5c-1.3-0.3-2.2-1.4-2.2-2.8c0-1.6,1.3-2.9,2.9-2.9c0.4,0,0.8,0.1,1.1,0.2
	c0.7-0.9,1.8-1.5,3.1-1.5s2.4,0.6,3.1,1.6c0.3-0.1,0.7-0.2,1.1-0.2c1.6,0,2.9,1.3,2.9,2.9C-273.9,396.6-274.9,397.7-276.1,398z"/>
</svg>
