<?xml version="1.0" encoding="utf-8"?>
<!-- Generator: Adobe Illustrator 19.0.0, SVG Export Plug-In . SVG Version: 6.00 Build 0)  -->
<svg version="1.1" id="Layer_1" xmlns="http://www.w3.org/2000/svg" xmlns:xlink="http://www.w3.org/1999/xlink" x="0px" y="0px"
	 viewBox="-586 770 24 24" style="enable-background:new -586 770 24 24;" xml:space="preserve">
<style type="text/css">
	.st0{fill:#FFFFFF;}
</style>
<g>
	<path class="st0" d="M-571.8,786.7c-0.2-1.2-0.5-1.7-0.5-1.7c0.1,0,0.3,0,0.5,0c0.2,0.1,0.4,0.2,0.5,0.4c0,0.1,0.1,0.1,0.1,0
		s0-0.2,0-0.3c-0.1-0.2-0.2-0.4-0.5-0.5c-0.2,0-0.4,0-0.5,0.1c0.1-0.1,0.3-0.2,0.5-0.3c0.4-0.1,0.8-0.1,1.1,0.1c0.1,0,0.1,0,0.1-0.1
		c0-0.2-0.1-0.3-0.3-0.5c-0.3-0.2-0.7-0.3-1.1-0.2c-0.1,0.1-0.2,0.1-0.3,0.2c0.2-0.4,0.6-0.5,0.9-0.5c0,0,0.1-0.1,0-0.1
		c-0.1-0.1-0.2-0.2-0.4-0.2c-0.4-0.1-0.8,0.1-1.1,0.4c-0.1,0.1-0.2,0.3-0.2,0.4c-0.1-0.1-0.3-0.2-0.4-0.2c-0.4-0.1-0.8,0.1-1.1,0.4
		c-0.1,0.1-0.2,0.3-0.2,0.4c0,0.1,0,0.1,0.1,0.1c0.2-0.2,0.4-0.2,0.7-0.2c0.1,0,0.1,0,0.3,0c-0.1,0-0.2,0-0.3,0c-0.1,0-0.1,0-0.1,0
		c-0.3,0.1-0.6,0.4-0.7,0.8c-0.1,0.3-0.1,0.4,0,0.6c0,0.1,0.1,0.1,0.1,0c0.1-0.3,0.4-0.6,0.8-0.7c0.1-0.1,0.3-0.1,0.5-0.1
		c-0.1,0-0.3,0.1-0.4,0.2c-0.2,0.2-0.2,0.5-0.1,0.7c0,0.1,0,0.1,0.1,0.2c0,0.1,0.1,0.1,0.1,0c0-0.2,0-0.4,0.2-0.6
		c0.1-0.2,0.3-0.3,0.4-0.3c0,0,0.3,0.6,0.3,1.4c-0.4-0.1-0.8-0.1-1.2-0.1c-1.1,0-2,0.2-2.9,0.4c0.2-4,2.6-6.6,2.6-6.6
		c0.3,0.2,0.5,0.5,0.7,0.9c0.2,0.6,0.2,1.1,0,1.5c0,0.1,0.1,0.3,0.2,0.2c0.2-0.1,0.3-0.2,0.5-0.4c0.4-0.5,0.5-1.1,0.3-1.7
		c-0.1-0.3-0.4-0.6-0.7-0.8c0.3,0.1,0.7,0.3,1.1,0.6c0.8,0.6,1.2,1.4,1.2,2.2c0,0.1,0.2,0.2,0.3,0.1c0.2-0.3,0.4-0.7,0.5-1.2
		c0.1-0.9-0.2-1.8-0.9-2.4c-0.3-0.2-0.5-0.3-0.8-0.4h0.1c1,0.1,1.7,0.6,2.1,1.2c0.1,0.1,0.3,0.1,0.3-0.1c0-0.3,0-0.7-0.2-1.1
		c-0.4-0.9-1.2-1.6-2.2-1.7c-0.3,0-0.7,0-1,0.1c0-0.3,0-0.7-0.1-1c-0.3-0.9-1.1-1.6-2.1-1.7c-0.4-0.1-0.8,0-1.1,0.1
		c-0.1,0-0.2,0.2,0,0.3c0.7,0.2,1.3,0.8,1.7,1.6c0,0.1,0,0.1,0,0.1c-0.2-0.2-0.4-0.4-0.6-0.6c-0.8-0.5-1.7-0.6-2.6-0.3
		c-0.5,0.2-0.8,0.5-1,0.9c-0.1,0.1,0,0.2,0.1,0.2c0.8-0.2,1.6,0,2.6,0.5c0.3,0.3,0.6,0.7,0.8,1c-0.3-0.2-0.6-0.4-1-0.5
		c-0.6-0.1-1.2,0.2-1.6,0.7c-0.2,0.2-0.3,0.4-0.3,0.6c-0.1,0.2,0.1,0.3,0.2,0.2c0.4-0.3,0.8-0.4,1.4-0.4c0.5,0.1,0.9,0.3,1.1,0.6
		c0,0.1-3,2.3-4.9,9c-0.1,0.1-0.2,0.2-0.3,0.3c-0.1,0-0.1,0.1-0.1,0.2c0,0.2,0.2,0.4,0.4,0.4h12.2c0.3,0,0.5-0.4,0.5-0.6
		C-568.3,787.8-569.9,787-571.8,786.7z"/>
</g>
</svg>
