<?xml version="1.0" encoding="utf-8"?>
<!-- Generator: Adobe Illustrator 19.0.0, SVG Export Plug-In . SVG Version: 6.00 Build 0)  -->
<svg version="1.1" id="Layer_1" xmlns="http://www.w3.org/2000/svg" xmlns:xlink="http://www.w3.org/1999/xlink" x="0px" y="0px"
	 viewBox="-284 387.9 19.1 21.1" style="enable-background:new -284 387.9 19.1 21.1;" xml:space="preserve">
<style type="text/css">
	.st0{fill:#FFFFFF;}
</style>
<g>
	<path class="st0" d="M-269.3,396.4h-9.4c0-1.6,1.3-2.9,2.9-2.9h0.8V390h2v3.6h0.8C-270.6,393.5-269.3,394.8-269.3,396.4z
		 M-273.6,397.6L-273.6,397.6c0-0.3-0.2-0.5-0.5-0.5c-0.3,0-0.5,0.2-0.5,0.5c0,0.3,0.2,0.5,0.5,0.5
		C-273.8,398.1-273.6,397.8-273.6,397.6z M-273.6,401.6L-273.6,401.6c0-0.3-0.2-0.5-0.5-0.5c-0.3,0-0.5,0.2-0.5,0.5
		c0,0.3,0.2,0.5,0.5,0.5C-273.8,402.1-273.6,401.8-273.6,401.6z M-273.6,399.6L-273.6,399.6c0-0.3-0.2-0.5-0.5-0.5
		c-0.3,0-0.5,0.2-0.5,0.5c0,0.3,0.2,0.5,0.5,0.5C-273.8,400.1-273.6,399.8-273.6,399.6z M-273.6,403.6L-273.6,403.6
		c0-0.3-0.2-0.5-0.5-0.5c-0.3,0-0.5,0.2-0.5,0.5c0,0.3,0.2,0.5,0.5,0.5C-273.8,404-273.6,403.8-273.6,403.6z M-268.4,403.5
		c0.2-0.1,0.4-0.4,0.3-0.6l0,0c-0.1-0.2-0.4-0.4-0.6-0.3c-0.3,0.1-0.4,0.4-0.3,0.6c0.1,0.2,0.3,0.3,0.4,0.3
		S-268.5,403.5-268.4,403.5z M-269.1,401.7c0.2-0.1,0.4-0.4,0.3-0.6l0,0c-0.1-0.2-0.4-0.4-0.6-0.3c-0.2,0.1-0.4,0.4-0.3,0.6
		c0.1,0.2,0.3,0.3,0.4,0.3C-269.2,401.7-269.1,401.7-269.1,401.7z M-269.8,399.9c0.3-0.1,0.4-0.3,0.3-0.6l0,0
		c-0.1-0.3-0.3-0.4-0.6-0.3c-0.3,0.1-0.4,0.3-0.3,0.6c0.1,0.2,0.3,0.3,0.5,0.3C-269.9,399.9-269.8,399.9-269.8,399.9z M-270.4,398
		c0.2-0.1,0.4-0.4,0.3-0.6l0,0c-0.1-0.2-0.4-0.4-0.6-0.3c-0.2,0.1-0.4,0.4-0.3,0.6c0.1,0.2,0.3,0.3,0.4,0.3
		C-270.5,398.1-270.4,398.1-270.4,398z M-271.2,403.8c0.3-0.1,0.4-0.3,0.4-0.6l0,0c-0.1-0.3-0.3-0.4-0.6-0.4
		c-0.3,0.1-0.4,0.3-0.4,0.6C-271.7,403.6-271.5,403.8-271.2,403.8C-271.3,403.8-271.3,403.8-271.2,403.8z M-271.6,401.9
		c0.3,0,0.5-0.3,0.4-0.5l0,0c0-0.3-0.3-0.5-0.5-0.4c-0.3,0-0.5,0.3-0.4,0.5C-272.1,401.7-271.9,401.9-271.6,401.9L-271.6,401.9z
		 M-271.8,400c0.3-0.1,0.4-0.3,0.4-0.6l0,0c-0.1-0.3-0.3-0.4-0.6-0.4c-0.3,0.1-0.4,0.3-0.4,0.6C-272.3,399.8-272.1,400-271.8,400
		C-271.9,400-271.9,400-271.8,400z M-272.1,398.1c0.3-0.1,0.4-0.3,0.4-0.6l0,0c-0.1-0.3-0.3-0.4-0.6-0.4c-0.3,0.1-0.4,0.3-0.4,0.6
		C-272.6,397.9-272.4,398.1-272.1,398.1C-272.2,398.1-272.1,398.1-272.1,398.1z M-279.1,403.2L-279.1,403.2c0.1-0.3,0-0.5-0.3-0.6
		c-0.2-0.1-0.5,0-0.6,0.3c-0.1,0.2,0,0.5,0.3,0.6c0.1,0,0.1,0,0.2,0C-279.3,403.5-279.1,403.4-279.1,403.2z M-278.4,401.4
		L-278.4,401.4c0.1-0.3,0-0.5-0.3-0.6c-0.2-0.1-0.5,0-0.6,0.3c-0.1,0.2,0,0.5,0.3,0.6c0.1,0,0.1,0,0.2,0
		C-278.7,401.7-278.5,401.6-278.4,401.4z M-277.7,399.5L-277.7,399.5c0.1-0.2-0.1-0.5-0.3-0.6c-0.3-0.1-0.5,0.1-0.6,0.3
		c-0.1,0.3,0.1,0.5,0.3,0.6h0.1C-278,399.9-277.8,399.7-277.7,399.5z M-277.1,397.8L-277.1,397.8c0.1-0.3,0-0.5-0.3-0.6
		c-0.2-0.1-0.5,0-0.6,0.3c-0.1,0.2,0,0.5,0.3,0.6c0.1,0,0.1,0,0.2,0C-277.3,398.1-277.1,397.9-277.1,397.8z M-276.3,403.4
		L-276.3,403.4c0.1-0.3-0.1-0.5-0.4-0.6c-0.3-0.1-0.5,0.1-0.6,0.4c-0.1,0.3,0.1,0.5,0.4,0.6h0.1
		C-276.5,403.8-276.3,403.6-276.3,403.4z M-276,401.4L-276,401.4c0-0.3-0.2-0.5-0.4-0.5c-0.3,0-0.5,0.2-0.5,0.4
		c0,0.3,0.2,0.5,0.4,0.5l0,0C-276.2,401.9-276,401.7-276,401.4z M-275.7,399.6L-275.7,399.6c0.1-0.3-0.1-0.5-0.4-0.6
		c-0.3-0.1-0.5,0.1-0.6,0.4c-0.1,0.3,0.1,0.5,0.4,0.6h0.1C-275.9,400-275.7,399.8-275.7,399.6z M-275.4,397.7L-275.4,397.7
		c0.1-0.3-0.1-0.5-0.4-0.6c-0.3-0.1-0.5,0.1-0.6,0.4c0,0.2,0.2,0.5,0.4,0.6h0.1C-275.6,398.1-275.4,397.9-275.4,397.7z"/>
</g>
</svg>
