<?xml version="1.0" encoding="utf-8"?>
<!-- Generator: Adobe Illustrator 19.0.0, SVG Export Plug-In . SVG Version: 6.00 Build 0)  -->
<svg version="1.1" id="Layer_1" xmlns="http://www.w3.org/2000/svg" xmlns:xlink="http://www.w3.org/1999/xlink" x="0px" y="0px"
	 viewBox="-586 770 24 24" style="enable-background:new -586 770 24 24;" xml:space="preserve">
<style type="text/css">
	.st0{fill:#FFFFFF;}
</style>
<g>
	<path class="st0" d="M-569.8,784.7h-0.8c-0.9,0-1.7-0.8-1.7-1.7v-0.5c0.4-0.4,0.6-0.9,0.8-1.5c0.1-0.1,0.1-0.1,0.2-0.2
		c0.3-0.4,0.3-0.9,0.1-1.3c0-0.1-0.1-0.1-0.1-0.2c0-0.5,0-1,0-1.5c0-0.6-0.2-1.3-0.6-1.7c-0.4-0.4-0.8-0.6-1.3-0.7
		c-0.6-0.2-1.2-0.2-1.8,0c-0.5,0.1-1,0.4-1.3,0.9c-0.3,0.4-0.4,0.8-0.4,1.3s0,1,0,1.5c0,0.1-0.1,0.2-0.1,0.3
		c-0.3,0.4-0.2,0.9,0.2,1.1c0,0.1,0.1,0.2,0.1,0.3c0.2,0.5,0.5,1,0.8,1.4v0.6c0,0.9-0.8,1.7-1.7,1.7h-0.8c0,0-1.5,0.4-2.5,2.5v0.9
		c0,0.4,0.3,0.8,0.8,0.8h11.8c0.4,0,0.8-0.3,0.8-0.8v-0.7C-568.3,785.1-569.8,784.7-569.8,784.7z"/>
</g>
</svg>
