<?xml version="1.0" encoding="utf-8"?>
<!-- Generator: Adobe Illustrator 19.0.0, SVG Export Plug-In . SVG Version: 6.00 Build 0)  -->
<svg version="1.1" id="Layer_1" xmlns="http://www.w3.org/2000/svg" xmlns:xlink="http://www.w3.org/1999/xlink" x="0px" y="0px"
	 viewBox="-293 385 24 24" style="enable-background:new -293 385 24 24;" xml:space="preserve">
<style type="text/css">
	.st0{fill:#1E3A21;}
</style>
<path class="st0" d="M-271.8,385h-18.4c-1.5,0-2.8,1.3-2.8,2.8v18.4c0,1.5,1.3,2.8,2.8,2.8h18.4c1.5,0,2.8-1.3,2.8-2.8v-18.4
	C-269,386.3-270.3,385-271.8,385z M-274.9,404.5h-12.2c-0.2,0-0.4-0.2-0.4-0.4l0,0c0-0.1,0-0.2,0.1-0.2c0.1-0.1,0.2-0.2,0.3-0.3
	c1.9-6.7,4.9-8.9,4.9-9c-0.2-0.3-0.6-0.5-1.1-0.6c-0.6,0-1,0.1-1.4,0.4c-0.1,0.1-0.3,0-0.2-0.2c0-0.2,0.1-0.4,0.3-0.6
	c0.4-0.5,1-0.8,1.6-0.7c0.4,0.1,0.7,0.3,1,0.5c-0.2-0.3-0.5-0.7-0.8-1c-1-0.5-1.8-0.7-2.6-0.5c-0.1,0-0.2-0.1-0.1-0.2
	c0.2-0.4,0.5-0.7,1-0.9c0.9-0.3,1.8-0.2,2.6,0.3c0.2,0.2,0.4,0.4,0.6,0.6c0,0,0,0,0-0.1c-0.4-0.8-1-1.4-1.7-1.6
	c-0.2-0.1-0.1-0.3,0-0.3c0.3-0.1,0.7-0.2,1.1-0.1c1,0.1,1.8,0.8,2.1,1.7c0.1,0.3,0.1,0.7,0.1,1c0.3-0.1,0.7-0.1,1-0.1
	c1,0.1,1.8,0.8,2.2,1.7c0.2,0.4,0.2,0.8,0.2,1.1c0,0.2-0.2,0.2-0.3,0.1c-0.4-0.6-1.1-1.1-2.1-1.2h-0.1c0.3,0.1,0.5,0.2,0.8,0.4
	c0.7,0.6,1,1.5,0.9,2.4c-0.1,0.5-0.3,0.9-0.5,1.2c-0.1,0.1-0.3,0-0.3-0.1c0-0.8-0.4-1.6-1.2-2.2c-0.4-0.3-0.8-0.5-1.1-0.6
	c0.3,0.2,0.6,0.5,0.7,0.8c0.2,0.6,0.1,1.2-0.3,1.7c-0.2,0.2-0.3,0.3-0.5,0.4c-0.1,0.1-0.2-0.1-0.2-0.2c0.2-0.4,0.2-0.9,0-1.5
	c-0.2-0.4-0.4-0.7-0.7-0.9c0,0-2.4,2.6-2.6,6.6c0.9-0.2,1.8-0.4,2.9-0.4c0.4,0,0.8,0,1.2,0.1c0-0.8-0.3-1.4-0.3-1.4
	c-0.1,0-0.3,0.1-0.4,0.3c-0.2,0.2-0.2,0.4-0.2,0.6c0,0.1-0.1,0.1-0.1,0c-0.1-0.1-0.1-0.1-0.1-0.2c-0.1-0.2-0.1-0.5,0.1-0.7
	c0.1-0.1,0.3-0.2,0.4-0.2c-0.2,0-0.4,0-0.5,0.1c-0.4,0.1-0.7,0.4-0.8,0.7c0,0.1-0.1,0.1-0.1,0c-0.1-0.2-0.1-0.3,0-0.6
	c0.1-0.4,0.4-0.7,0.7-0.8c0.1,0,0.2-0.1,0.4,0l0,0c-0.4-0.1-0.8,0-1,0.2c-0.1,0-0.1,0-0.1-0.1s0.1-0.3,0.2-0.4
	c0.3-0.3,0.7-0.5,1.1-0.4c0.1,0,0.3,0.1,0.4,0.2c0-0.1,0.1-0.3,0.2-0.4c0.3-0.3,0.7-0.5,1.1-0.4c0.2,0,0.3,0.1,0.4,0.2
	c0.1,0,0,0.1,0,0.1c-0.3,0-0.7,0.1-0.9,0.5l0,0c0.1-0.1,0.2-0.1,0.3-0.2c0.4-0.1,0.8,0,1.1,0.2c0.2,0.2,0.3,0.3,0.3,0.5
	c0,0.1,0,0.1-0.1,0.1c-0.3-0.2-0.7-0.2-1.1-0.1c-0.2,0.1-0.4,0.2-0.5,0.3c0.1-0.1,0.3-0.1,0.5-0.1c0.3,0.1,0.4,0.3,0.5,0.5
	c0,0.1,0,0.2,0,0.3s-0.1,0.1-0.1,0c-0.1-0.2-0.3-0.3-0.5-0.4c-0.2,0-0.4,0-0.5,0c0,0,0.3,0.5,0.5,1.7c1.9,0.3,3.5,1.1,4.4,2.2
	C-274.4,404.1-274.6,404.5-274.9,404.5z"/>
</svg>
