<?xml version="1.0" encoding="utf-8"?>
<!-- Generator: Adobe Illustrator 18.0.0, SVG Export Plug-In . SVG Version: 6.00 Build 0)  -->
<!DOCTYPE svg PUBLIC "-//W3C//DTD SVG 1.1//EN" "http://www.w3.org/Graphics/SVG/1.1/DTD/svg11.dtd">
<svg version="1.1" id="Layer_1" xmlns="http://www.w3.org/2000/svg" xmlns:xlink="http://www.w3.org/1999/xlink" x="0px" y="0px"
	 viewBox="0 0 24 24" enable-background="new 0 0 24 24" xml:space="preserve">
<path fill="#1E3A21" d="M20,24H4c-2.2,0-4-1.8-4-4L0,4c0-2.2,1.8-4,4-4l16,0c2.2,0,4,1.8,4,4v16C24,22.2,22.2,24,20,24z"/>
<g display="none">
	<defs>
		<path id="SVGID_3_" d="M20,24H4c-2.2,0-4-1.8-4-4L0,4c0-2.2,1.8-4,4-4l16,0c2.2,0,4,1.8,4,4v16C24,22.2,22.2,24,20,24z"/>
	</defs>
	<clipPath id="SVGID_2_" display="inline">
		<use xlink:href="#SVGID_3_"  overflow="visible"/>
	</clipPath>
	<g display="inline" clip-path="url(#SVGID_2_)">
		<g>
			<path fill="#FFFFFF" d="M9.8,7.5H13c0.3,0,0.5-0.2,0.5-0.5c0-0.3-0.2-0.5-0.5-0.5H9.8C9.6,6.6,9.4,6.8,9.4,7
				C9.4,7.3,9.6,7.5,9.8,7.5z"/>
			<path fill="#FFFFFF" d="M20.3,7c0,0.3,0.2,0.5,0.5,0.5H24c0.3,0,0.5-0.2,0.5-0.5c0-0.3-0.2-0.5-0.5-0.5h-3.2
				C20.5,6.6,20.3,6.8,20.3,7z"/>
			<path fill="#FFFFFF" d="M19.3,9.5c-0.2,0.2-0.2,0.5,0,0.7l1.1,1.1c0.1,0.1,0.2,0.1,0.3,0.1c0.1,0,0.2,0,0.3-0.1
				c0.2-0.2,0.2-0.5,0-0.7L20,9.5C19.8,9.3,19.5,9.3,19.3,9.5z"/>
			<path fill="#FFFFFF" d="M16.4,11.1v3c0,0.3,0.2,0.5,0.5,0.5c0.3,0,0.5-0.2,0.5-0.5v-3c0-0.3-0.2-0.5-0.5-0.5
				C16.6,10.6,16.4,10.8,16.4,11.1z"/>
			<path fill="#FFFFFF" d="M13.8,9.5l-1.1,1.1c-0.2,0.2-0.2,0.5,0,0.7c0.1,0.1,0.2,0.1,0.3,0.1c0.1,0,0.2,0,0.3-0.1l1.1-1.1
				c0.2-0.2,0.2-0.5,0-0.7C14.3,9.3,14,9.3,13.8,9.5z"/>
			<path fill="#FFFFFF" d="M16.9,10.1c1.7,0,3.1-1.4,3.1-3.1S18.6,4,16.9,4c-1.7,0-3.1,1.4-3.1,3.1C13.8,8.7,15.2,10.1,16.9,10.1z
				 M16.9,4.9c1.2,0,2.1,1,2.1,2.1c0,1.2-1,2.1-2.1,2.1c-1.2,0-2.1-1-2.1-2.1C14.8,5.9,15.7,4.9,16.9,4.9z"/>
			<path fill="#FFFFFF" d="M13.8,4.6c0.1,0.1,0.2,0.1,0.3,0.1s0.2,0,0.3-0.1c0.2-0.2,0.2-0.5,0-0.7l-1.1-1.1c-0.2-0.2-0.5-0.2-0.7,0
				c-0.2,0.2-0.2,0.5,0,0.7L13.8,4.6z"/>
			<path fill="#FFFFFF" d="M16.9,3.5c0.3,0,0.5-0.2,0.5-0.5V0c0-0.3-0.2-0.5-0.5-0.5c-0.3,0-0.5,0.2-0.5,0.5v3
				C16.4,3.3,16.6,3.5,16.9,3.5z"/>
			<path fill="#FFFFFF" d="M19.7,4.7c0.1,0,0.2,0,0.3-0.1l1.1-1.1c0.2-0.2,0.2-0.5,0-0.7c-0.2-0.2-0.5-0.2-0.7,0l-1.1,1.1
				c-0.2,0.2-0.2,0.5,0,0.7C19.4,4.7,19.6,4.7,19.7,4.7z"/>
			<path fill="#FFFFFF" d="M24,17.7c-0.7,0-1-0.3-1.4-0.6c-0.5-0.4-1-0.8-2-0.8c-1,0-1.5,0.4-2,0.8c-0.4,0.3-0.7,0.6-1.4,0.6
				c-0.7,0-1-0.3-1.4-0.6c-0.5-0.4-1-0.8-2-0.8c-1,0-1.5,0.4-2,0.8c-0.4,0.3-0.7,0.6-1.4,0.6c-0.7,0-1-0.3-1.4-0.6
				c-0.5-0.4-1-0.8-2-0.8s-1.5,0.4-2,0.8c-0.4,0.3-0.7,0.6-1.4,0.6c-0.7,0-1-0.3-1.4-0.6c-0.5-0.4-1-0.8-2-0.8
				c-0.3,0-0.5,0.2-0.5,0.5c0,0.3,0.2,0.5,0.5,0.5c0.7,0,1,0.3,1.4,0.6c0.5,0.4,1,0.8,2,0.8c1,0,1.5-0.4,2-0.8
				c0.4-0.3,0.7-0.6,1.4-0.6s1,0.3,1.4,0.6c0.5,0.4,1,0.8,2,0.8s1.5-0.4,2-0.8c0.4-0.3,0.7-0.6,1.4-0.6c0.7,0,1,0.3,1.4,0.6
				c0.5,0.4,1,0.8,2,0.8c1,0,1.5-0.4,2-0.8c0.4-0.3,0.7-0.6,1.4-0.6c0.7,0,1,0.3,1.4,0.6c0.5,0.4,1,0.8,2,0.8c0.3,0,0.5-0.2,0.5-0.5
				C24.4,17.9,24.2,17.7,24,17.7z"/>
			<path fill="#FFFFFF" d="M24,20.6c-0.7,0-1-0.3-1.4-0.6c-0.5-0.4-1-0.8-2-0.8c-1,0-1.5,0.4-2,0.8c-0.4,0.3-0.7,0.6-1.4,0.6
				c-0.7,0-1-0.3-1.4-0.6c-0.5-0.4-1-0.8-2-0.8c-1,0-1.5,0.4-2,0.8c-0.4,0.3-0.7,0.6-1.4,0.6c-0.7,0-1-0.3-1.4-0.6
				c-0.5-0.4-1-0.8-2-0.8s-1.5,0.4-2,0.8c-0.4,0.3-0.7,0.6-1.4,0.6c-0.7,0-1-0.3-1.4-0.6c-0.5-0.4-1-0.8-2-0.8
				c-0.3,0-0.5,0.2-0.5,0.5c0,0.3,0.2,0.5,0.5,0.5c0.7,0,1,0.3,1.4,0.6c0.5,0.4,1,0.8,2,0.8c1,0,1.5-0.4,2-0.8
				c0.4-0.3,0.7-0.6,1.4-0.6s1,0.3,1.4,0.6c0.5,0.4,1,0.8,2,0.8s1.5-0.4,2-0.8c0.4-0.3,0.7-0.6,1.4-0.6c0.7,0,1,0.3,1.4,0.6
				c0.5,0.4,1,0.8,2,0.8c1,0,1.5-0.4,2-0.8c0.4-0.3,0.7-0.6,1.4-0.6c0.7,0,1,0.3,1.4,0.6c0.5,0.4,1,0.8,2,0.8c0.3,0,0.5-0.2,0.5-0.5
				C24.4,20.9,24.2,20.6,24,20.6z"/>
			<path fill="#FFFFFF" d="M24,23.6c-0.7,0-1-0.3-1.4-0.6c-0.5-0.4-1-0.8-2-0.8c-1,0-1.5,0.4-2,0.8c-0.4,0.3-0.7,0.6-1.4,0.6
				c-0.7,0-1-0.3-1.4-0.6c-0.5-0.4-1-0.8-2-0.8c-1,0-1.5,0.4-2,0.8c-0.4,0.3-0.7,0.6-1.4,0.6c-0.7,0-1-0.3-1.4-0.6
				c-0.5-0.4-1-0.8-2-0.8s-1.5,0.4-2,0.8c-0.4,0.3-0.7,0.6-1.4,0.6c-0.7,0-1-0.3-1.4-0.6c-0.5-0.4-1-0.8-2-0.8
				c-0.3,0-0.5,0.2-0.5,0.5c0,0.3,0.2,0.5,0.5,0.5c0.7,0,1,0.3,1.4,0.6c0.5,0.4,1,0.8,2,0.8c1,0,1.5-0.4,2-0.8
				c0.4-0.3,0.7-0.6,1.4-0.6s1,0.3,1.4,0.6c0.5,0.4,1,0.8,2,0.8s1.5-0.4,2-0.8c0.4-0.3,0.7-0.6,1.4-0.6c0.7,0,1,0.3,1.4,0.6
				c0.5,0.4,1,0.8,2,0.8c1,0,1.5-0.4,2-0.8c0.4-0.3,0.7-0.6,1.4-0.6c0.7,0,1,0.3,1.4,0.6c0.5,0.4,1,0.8,2,0.8c0.3,0,0.5-0.2,0.5-0.5
				C24.4,23.8,24.2,23.6,24,23.6z"/>
		</g>
	</g>
</g>
<g>
	<g>
		<path fill="#FFFFFF" d="M15.1,7.5c-1.1,0-2.1,0.3-3,0.8c-0.6-0.3-1.2-0.5-1.8-0.7l0.3-0.1c0.1,0,0.2-0.1,0.2-0.2L12,5.1
			c0-0.1,0-0.2-0.1-0.2L9.2,3.9c0,0-0.1,0-0.1,0l0,0c0,0,0,0,0,0c0,0,0,0,0,0c0,0-0.1,0-0.1,0L6.1,4.9C6,4.9,6,5,6,5.1l1.2,2.2
			c0,0.1,0.1,0.2,0.2,0.2l0.3,0.1c-2.9,0.6-5.2,3.1-5.2,6.2c0,3.5,2.9,6.4,6.4,6.4c1.1,0,2.1-0.3,3-0.8c0.9,0.5,2,0.8,3.1,0.8
			c3.5,0,6.4-2.9,6.4-6.4C21.4,10.3,18.6,7.5,15.1,7.5z M13.9,13.8c0,1.6-0.8,3-2,4c-1.2-0.9-1.9-2.3-1.9-3.9c0-1.6,0.8-3,2-4
			C13.2,10.8,13.9,12.2,13.9,13.8z M8.9,18.8c-2.8,0-5-2.2-5-5c0-2.8,2.2-5,5-5c0.6,0,1.3,0.1,1.8,0.4c-1.3,1.2-2.1,2.8-2.1,4.7
			c0,1.8,0.8,3.5,2,4.6C10.2,18.7,9.6,18.8,8.9,18.8z M15.1,18.8c-0.6,0-1.3-0.1-1.8-0.4c1.3-1.2,2.1-2.8,2.1-4.7
			c0-1.8-0.8-3.5-2-4.6c0.5-0.2,1.1-0.3,1.8-0.3c2.8,0,5,2.2,5,5C20.1,16.6,17.8,18.8,15.1,18.8z"/>
	</g>
</g>
</svg>
