<?xml version="1.0" encoding="utf-8"?>
<!-- Generator: Adobe Illustrator 19.0.0, SVG Export Plug-In . SVG Version: 6.00 Build 0)  -->
<svg version="1.1" id="Layer_1" xmlns="http://www.w3.org/2000/svg" xmlns:xlink="http://www.w3.org/1999/xlink" x="0px" y="0px"
	 viewBox="-293 385 24 24" style="enable-background:new -293 385 24 24;" xml:space="preserve">
<style type="text/css">
	.st0{fill:#1E3A21;}
</style>
<g>
	<path class="st0" d="M-282.1,394.2h-4c-0.5,0-0.9,0.3-0.9,0.8v1.6h5.6V395C-281.3,394.5-281.7,394.2-282.1,394.2z"/>
	<path class="st0" d="M-275.9,394.2h-4c-0.4,0-0.8,0.4-0.8,0.8v1.6h5.6V395C-275.1,394.5-275.4,394.2-275.9,394.2z"/>
	<path class="st0" d="M-271.8,385h-18.4c-1.5,0-2.8,1.3-2.8,2.8v18.4c0,1.5,1.3,2.8,2.8,2.8h18.4c1.5,0,2.8-1.3,2.8-2.8v-18.4
		C-269,386.3-270.3,385-271.8,385z M-273,400.6h-0.4v1.2c0,0.4-0.4,0.8-0.8,0.8c-0.4,0-0.8-0.4-0.8-0.8v-1.2h-12.1v1.2
		c0,0.4-0.4,0.8-0.8,0.8s-0.8-0.4-0.8-0.8v-1.2h-0.4c-0.4,0-0.8-0.4-0.8-0.8c0-0.4,0.4-0.8,0.8-0.8l0,0c0-0.1,0-0.3,0-0.4
		c0-0.8,0.5-1.5,1.2-1.8v-3.4c0-1.1,0.9-2,2-2h9.7c1.1,0,2,0.9,2,2v3.4c0.7,0.3,1.2,1,1.2,1.8c0,0.1,0,0.3,0,0.4l0,0
		c0.4,0,0.8,0.4,0.8,0.8C-272.2,400.3-272.5,400.6-273,400.6z"/>
</g>
</svg>
