<?xml version="1.0" encoding="utf-8"?>
<!-- Generator: Adobe Illustrator 19.0.0, SVG Export Plug-In . SVG Version: 6.00 Build 0)  -->
<svg version="1.1" id="Layer_1" xmlns="http://www.w3.org/2000/svg" xmlns:xlink="http://www.w3.org/1999/xlink" x="0px" y="0px"
	 viewBox="-293 385 24 24" style="enable-background:new -293 385 24 24;" xml:space="preserve">
<style type="text/css">
	.st0{fill:#1E3A21;}
</style>
<path class="st0" d="M-271.8,385h-18.4c-1.5,0-2.8,1.3-2.8,2.8v18.4c0,1.5,1.3,2.8,2.8,2.8h18.4c1.5,0,2.8-1.3,2.8-2.8v-18.4
	C-269,386.3-270.3,385-271.8,385z M-274.3,402.9c0,0.5-0.4,0.8-0.8,0.8h-11.8c-0.5,0-0.8-0.4-0.8-0.8V402c1-2.1,2.5-2.5,2.5-2.5h0.8
	c0.9,0,1.7-0.8,1.7-1.7v-0.6c-0.3-0.4-0.6-0.9-0.8-1.4c0-0.1-0.1-0.2-0.1-0.3c-0.4-0.2-0.5-0.7-0.2-1.1c0-0.1,0.1-0.2,0.1-0.3
	c0-0.5,0-1,0-1.5s0.1-0.9,0.4-1.3c0.3-0.5,0.8-0.8,1.3-0.9c0.6-0.2,1.2-0.2,1.8,0c0.5,0.1,0.9,0.3,1.3,0.7s0.6,1.1,0.6,1.7
	c0,0.5,0,1,0,1.5c0,0.1,0.1,0.1,0.1,0.2c0.2,0.4,0.2,0.9-0.1,1.3c-0.1,0.1-0.1,0.1-0.2,0.2c-0.2,0.6-0.4,1.1-0.8,1.5v0.5
	c0,0.9,0.8,1.7,1.7,1.7h0.8c0,0,1.5,0.4,2.5,2.5V402.9z"/>
</svg>
